<svg xmlns="http://www.w3.org/2000/svg" style="display:none">
  <symbol id="bros-icon-destination" viewBox="0 0 64 64"><path d="M32 6c-10 0-18 8-18 18 0 14 18 34 18 34s18-20 18-34c0-10-8-18-18-18Z" fill="#0F47B0"/><circle cx="32" cy="24" r="7" fill="#fff"/><path d="M9 55h46l-8-18H17L9 55Z" fill="#E8F2FF" stroke="#0F47B0" stroke-width="3"/></symbol>
  <symbol id="bros-icon-route" viewBox="0 0 64 64"><path d="M12 42c12-22 29 5 40-18" fill="none" stroke="#0F47B0" stroke-width="4" stroke-linecap="round" stroke-dasharray="5 6"/><circle cx="12" cy="42" r="6" fill="#0F47B0"/><circle cx="52" cy="24" r="6" fill="#F2B134"/></symbol>
  <symbol id="bros-icon-car" viewBox="0 0 64 64"><path d="M12 34 18 20h28l6 14v16H12V34Z" fill="#0F47B0"/><path d="M20 24h24l3 8H17l3-8Z" fill="#E8F2FF"/><circle cx="22" cy="50" r="5" fill="#102247"/><circle cx="42" cy="50" r="5" fill="#102247"/></symbol>
  <symbol id="bros-icon-guide" viewBox="0 0 64 64"><circle cx="32" cy="23" r="11" fill="#F2B134"/><path d="M17 57c2-13 8-20 15-20s13 7 15 20H17Z" fill="#0F47B0"/><path d="M18 19h28M24 13h16" stroke="#102247" stroke-width="4" stroke-linecap="round"/></symbol>
  <symbol id="bros-icon-halal" viewBox="0 0 64 64"><path d="M13 44h38v6H13z" fill="#F2B134"/><path d="M18 43c1-13 10-23 23-23 2 0 4 .2 6 .8-5 2-8 7-8 13s3 11 8 13c-3 1-6 1.2-9 1.2H18Z" fill="#0F47B0"/><path d="M32 14a18 18 0 0 1 17 12" fill="none" stroke="#F2B134" stroke-width="4"/></symbol>
  <symbol id="bros-icon-mountain" viewBox="0 0 64 64"><path d="M5 54 25 14l14 24 8-12 12 28H5Z" fill="#0F47B0"/><path d="m25 14 7 12-7-3-7 8 7-17Zm22 12 4 10-5-3-4 5 5-12Z" fill="#E8F2FF"/></symbol>
  <symbol id="bros-icon-lake" viewBox="0 0 64 64"><path d="M7 39c9-9 16-10 25-3 8 6 17 3 25-5v25H7V39Z" fill="#8BBEF4"/><path d="M7 48c13-5 21-2 31 1 6 2 12 1 19-3" fill="none" stroke="#0F47B0" stroke-width="4" stroke-linecap="round"/><path d="M8 35 26 18l12 12 8-8 12 16" fill="#EAF6EA"/></symbol>
  <symbol id="bros-icon-chat" viewBox="0 0 64 64"><path d="M12 15h40v29H29L17 55V44h-5V15Z" fill="#0F47B0"/><circle cx="25" cy="30" r="3" fill="#fff"/><circle cx="32" cy="30" r="3" fill="#fff"/><circle cx="39" cy="30" r="3" fill="#fff"/></symbol>
  <symbol id="bros-icon-calendar" viewBox="0 0 64 64"><rect x="12" y="14" width="40" height="40" rx="6" fill="#fff" stroke="#0F47B0" stroke-width="4"/><path d="M12 24h40" stroke="#0F47B0" stroke-width="4"/><path d="M22 10v9M42 10v9" stroke="#F2B134" stroke-width="5" stroke-linecap="round"/><path d="M21 32h6M30 32h6M39 32h6M21 42h6M30 42h6M39 42h6" stroke="#8BBEF4" stroke-width="4" stroke-linecap="round"/></symbol>
  <symbol id="bros-icon-ferry" viewBox="0 0 64 64"><path d="M14 36h36l-5 12H19l-5-12Z" fill="#0F47B0"/><path d="M23 24h18v12H23z" fill="#E8F2FF" stroke="#0F47B0" stroke-width="3"/><path d="M8 52c8-4 14-4 22 0s16 4 26 0" fill="none" stroke="#8BBEF4" stroke-width="4" stroke-linecap="round"/></symbol>
</svg>
